<?xml version="1.0" encoding="utf-8"?>
<!-- Generator: Adobe Illustrator 24.3.0, SVG Export Plug-In . SVG Version: 6.00 Build 0)  -->
<svg version="1.1" id="圖層_1" xmlns="http://www.w3.org/2000/svg" xmlns:xlink="http://www.w3.org/1999/xlink" x="0px" y="0px"
	 viewBox="0 0 122 25" style="enable-background:new 0 0 122 25;" xml:space="preserve">
<style type="text/css">
	.st0{fill:#00A19B;}
	.st1{fill:#FFFFFF;}
</style>
<g id="Group_3751" transform="translate(-0.444 -0.443)">
	<g id="Group_3" transform="translate(0.444 0.443)">
		<g id="Group_2">
			<path id="Path_1" class="st0" d="M24.9,8c2.5,6.4-0.7,13.6-7.1,16.1c-2.7,1.1-5.7,1.1-8.5,0.2C2.9,22.1-0.6,15,1.6,8.5
				c1-3,3.1-5.4,5.8-6.9c6.1-3.3,13.6-1,16.9,5.1C24.5,7.1,24.7,7.5,24.9,8z"/>
			<path id="Path_2" class="st1" d="M13,6c0.4-0.1,1-0.5,1.4-0.1c0.3,0.5,1.1,0.6,0.9,1.2c0.4,0.6,0.9,1.1,1.4,1.5
				c0.1,0,0.2-0.1,0.2-0.1l-0.1-0.1c0.2-0.2,0.6,0.1,0.9-0.1c0.2,0,0.4,0.1,0.5,0.2c0.1,0.2,0.2,0.5,0.3,0.7l0.1-0.1
				c0.1,0.2,0.2,0.4,0.3,0.6c0.9,0.3,1.3,1.4,2.1,1.9c0.9,0.7,2,1.3,3.1,1.7c0,0.2,0.1,0.2,0.2,0.2v0c-0.1-0.1-0.3-0.1-0.5-0.1
				c0.1,0.2,0.5,0.1,0.6,0.4H24c0,0.1,0.1,0.1,0.1,0.1c-0.2-0.1-0.4,0.1-0.5-0.2c-0.8-0.3-1.5-0.7-2.3-1.1l0,0
				c0.6,0.5,1.3,0.9,2,1.2c0.2,0.1,0.5,0.2,0.7,0.4c-0.1,0-0.2,0-0.2,0.1l-0.2-0.1c0,0,0,0.1,0,0.1l0.1,0.1
				c-0.9-0.3-1.8-0.8-2.5-1.3c-0.4-0.3-0.7-0.5-1.1-0.7c0,0-0.1,0-0.1,0.1c0.4,0.3,0.9,0.5,1.3,0.8c-0.9-0.4-1.7-1-2.3-1.7
				c-0.3-0.3-0.7-0.9-1.1-0.8c-0.2,0.1-0.4,0.1-0.6,0.2c-0.1,0-0.3-0.2-0.4-0.1c-0.1,0.3-0.5,0.1-0.6,0.4c-0.2,0.1-0.7,0-0.8,0.3
				l0,0.1c-0.5,0.2-1.2,0.2-1.5,0.6c-0.1,0.1-0.3,0-0.4,0.1c0,0,0-0.1,0-0.1c0,0,0,0,0,0c-0.1-0.1-0.2,0.1-0.3,0.1
				c-0.1-0.1,0.1-0.2,0.1-0.2c-0.2-0.1-0.3,0.2-0.5,0.3c0-0.2,0.2-0.2,0.3-0.4c-0.1-0.1-0.2,0.1-0.3,0.1c0,0,0.1-0.2,0-0.2
				c0.1-0.2,0.4-0.1,0.5-0.4h-0.2c0.2-0.2,0.4-0.3,0.6-0.5c-0.1,0-0.2-0.2-0.3,0c0,0,0-0.1,0-0.1c-0.1-0.1-0.2,0.1-0.3,0.1
				c0,0,0-0.1-0.1-0.1h-0.1c0.1-0.1,0.2-0.2,0.3-0.3L13,10.9c0.4-0.2,0.7-0.5,1.1-0.7l0.1-0.1c-0.1-0.1-0.2-0.1-0.4,0c0,0,0,0,0,0
				c0.3,0,0-0.4,0.3-0.4c0.1-0.3,0.3-0.5,0.5-0.6c-0.3-0.3-0.4-0.9-0.8-1c0-0.2-0.2,0-0.3-0.2c-0.4,0-1,0.2-1.3-0.2
				c-0.2-0.1-0.5-0.1-0.7,0c-0.2,0.2-0.3,0.4-0.4,0.6c-0.2,0.2-0.3,0.4-0.4,0.6c-0.2,0.4-0.5,0.6-0.9,0.8V9.7
				c-0.3,0.4-0.9,0.2-1.2,0.6l0-0.1c-0.1,0-0.2,0-0.2,0.2c0,0,0,0,0,0v0.1c-0.2-0.1-0.3,0.2-0.4,0.3c-0.4,0.5-1.1,0.5-1.6,0.8
				c0,0,0,0,0,0c-0.8,0.2-1.2,0.8-1.8,1.4c-0.2,0.2-0.4,0.4-0.6,0.6c0,0.2-0.2,0.3-0.3,0.4C3.8,13.7,4,13.6,4,13.4
				c-0.2,0.1-0.2,0.3-0.5,0.4c-0.1-0.1,0.1-0.2,0-0.3l-0.3,0.2l0.3-0.4c-0.1,0-0.3,0.3-0.5,0.3c0,0.1-0.1,0.1-0.2,0.1v0
				c0.1-0.1,0.3-0.3,0.4-0.4c-0.2-0.1-0.4,0.1-0.5,0.1c0,0,0-0.2-0.1-0.1C2.8,13.2,2.9,13.1,3,13c-0.1,0-0.2,0-0.3,0.1
				c0-0.1,0.3-0.2,0.2-0.4c-0.3-0.1-0.3,0.3-0.5,0.4c0.3-0.4,0.7-0.6,0.9-1l0,0c0.5-0.5,1.1-1,1.8-1.3c0.5-0.3,1.2-0.5,1.6-1
				C6.7,9.5,6.9,9.3,7,9.1c0.1,0,0.1-0.1,0.1-0.1c0.4-0.2,0.8-0.4,1.2-0.4C8.5,8.4,8.9,8.6,9,8.3c0.5-0.6,0.7-1.4,1.2-2.1
				c0.1-0.2,0.3-0.5,0.6-0.6C11.5,5.7,12.3,5.8,13,6z"/>
			<g id="Group_1" transform="translate(11.339 10.31)">
				<path id="Path_3" class="st1" d="M2,0.2C1.9,0.3,1.6,0.3,1.6,0.5c-0.2,0-0.4,0.2-0.5,0.2c0-0.2,0.3-0.1,0.3-0.3l0.2-0.2l0,0.1
					c0.1-0.1,0.3,0,0.2-0.2L2,0.2z"/>
				<path id="Path_4" class="st1" d="M1.2,0.3C1.2,0.4,1.1,0.5,0.9,0.5C1,0.4,1.1,0.4,1.2,0.3z"/>
				<path id="Path_5" class="st1" d="M1.6,0.9C1.6,1,1.5,1,1.5,1H1.4C1.4,1,1.5,0.9,1.6,0.9C1.6,0.9,1.6,0.9,1.6,0.9z"/>
			</g>
		</g>
	</g>
	<path id="Path_15" class="st0" d="M67.9,17.7h3.6V7.3h2.6v13.8h-2.6v-0.9l-9.8,0l0,0.9H59V7.2h2.6v10.5l3.6,0V4.9h2.7V17.7z"/>
	<g id="Group_6" transform="translate(33.91 4.92)">
		<path id="Path_16" class="st0" d="M10.2,13.4V8.8h5.5V6.3l-5.5,0V2.7h5.9l0-2.6H1.7v2.6h5.8v3.6H2.1v2.5h5.4v4.6H0.9V16h15.9v-2.5
			H10.2z"/>
		<path id="Path_17" class="st0" d="M12.7,9.6c-0.8,0.3-1.3,1.1-1,2c0.1,0.2,0.2,0.4,0.3,0.5c0.6,0.7,1.5,0.8,2.2,0.2
			c0.2-0.2,0.4-0.5,0.5-0.8c0.1-0.4,0-0.9-0.2-1.3C14.1,9.7,13.3,9.4,12.7,9.6z"/>
	</g>
	<g id="Group_7" transform="translate(80.935 4.82)">
		
			<rect id="Rectangle_2" x="6" y="10.4" transform="matrix(0.213 -0.9771 0.9771 0.213 -5.2131 15.889)" class="st0" width="2.6" height="1.6"/>
		<path id="Path_18" class="st0" d="M15.2,12.2c1.9-1.4,2.3-1.6,2.3-1.6S16,9.1,15.9,9.1s-1.3,0.8-1.8,1.2c-0.2-0.6-0.3-1.1-0.3-1.7
			h2.7V0.3H8.8v13.2c-0.3,0-0.5,0.1-0.7,0.1l-0.1-1L5.9,13V9.2h2.3V7.2H5.9V6.4h1.7v-1c0.1,0.1,0.2,0.1,0.2,0.1L8.8,3
			C7.5,2.4,6.6,1.4,6,0.1H3.9C3.3,1.5,2.3,2.7,0.9,3.5L2,5.9c0,0,0.2-0.2,0.5-0.4v0.8h1.4v0.8H1.3v2.1h2.5v4.2l-2.6,0.5l0.1,2.3
			l6.5-1.2l0,1.2l5.2-0.9l-0.1-2.1c0.8,1.3,1.9,2.4,3.3,3l1.1-2.2C16.6,13.5,15.8,12.9,15.2,12.2z M3.7,4.3c0.5-0.5,0.9-1,1.3-1.6
			c0.4,0.6,0.8,1.1,1.4,1.6H3.7z M11.1,2.6h3.2v1.1h-3.2V2.6z M11.1,13.2V8.6h0.7c0,1.5,0.3,3,1.1,4.3C12.5,12.9,11.9,13,11.1,13.2
			L11.1,13.2z M11.1,6.7V5.6h3.2v1.1L11.1,6.7z"/>
		<path id="Path_19" class="st0" d="M3.3,12.7L2.9,9.9l-1.7,0.3L1.6,13L3.3,12.7z"/>
	</g>
	<g id="Group_8" transform="translate(104.363 4.66)">
		<rect id="Rectangle_3" x="7.4" y="0.4" class="st0" width="9.1" height="2.4"/>
		<path id="Path_20" class="st0" d="M17.2,5.6H6.6L4.8,4.3c-1,1.7-2.4,3.3-3.9,4.6L2,11.6c0,0,0.5-0.4,1.2-1.1v5.8h2.5V7.5
			C6,7.1,6.3,6.7,6.6,6.2V8h5.6v5.4c0,0.2-0.2,0.3-0.3,0.3l0,0H9l1,2.4h3c1,0,1.8-0.8,1.8-1.8c0,0,0,0,0,0V8h2.4L17.2,5.6z"/>
		<path id="Path_21" class="st0" d="M6.6,1.6c-0.7-0.5-1.4-1-2.1-1.4c-1,1.3-2.1,2.4-3.5,3.3l1.2,2.4C3.9,4.6,5.4,3.2,6.6,1.6z"/>
	</g>
</g>
</svg>
