<?xml version="1.0" encoding="UTF-8"?>
<svg width="300px" height="43px" viewBox="0 0 300 43" version="1.1" xmlns="http://www.w3.org/2000/svg" xmlns:xlink="http://www.w3.org/1999/xlink">
    <title>HiTRUSE_logo</title>
    <g id="HiTRUSE_logo" stroke="none" stroke-width="1" fill="none" fill-rule="evenodd">
        <path d="M279.280256,11.2574686 L275.930933,19.6636376 L276.009594,40.6449547 L272.147271,40.6599843 L272.093691,26.2523816 L268.714728,26.2662551 L275.142053,11.2748104 L279.280256,11.2574686 Z M299.9658,28.8045228 L300,38.2465779 C299.93502,39.5055956 299.111939,40.4883 297.732538,40.4929245 L289.664752,40.5241398 L279.181304,40.563448 L279.137984,28.8842952 L289.621432,28.8438309 L299.9658,28.8045228 Z M296.255097,32.4567148 L289.633972,32.4798372 L282.806507,32.5052719 L282.823607,36.9829356 L289.651072,36.9563448 L296.271057,36.9320662 L296.255097,32.4567148 Z M299.601228,23.4910979 L299.614908,27.1271041 L279.477932,27.2034083 L279.463112,23.567402 L299.601228,23.4910979 Z M299.580936,18.1754763 L299.593476,21.7409591 L279.45764,21.8172632 L279.44396,18.2517804 L299.580936,18.1754763 Z M292.175718,11 L292.182558,12.8174251 L299.974464,12.7873659 L299.988144,16.4245283 L279.023528,16.5054569 L279.009848,12.8682945 L286.527014,12.8393914 L286.520174,11.0208102 L292.175718,11 Z M220.314737,11.2733074 L219.835936,12.3242231 L224.4575,12.3750925 L227.353102,12.3646874 L229.146323,12.3589068 L231.007945,12.35197 C233.767887,12.3404088 234.943228,13.5242786 235.018468,15.204125 L234.964888,19.3996948 L234.828088,19.3996948 L231.112825,21.7940252 L235.619248,28.2798742 L231.136765,28.2983722 L230.095944,26.8312523 L229.199904,26.8347207 L227.406682,26.8428135 L224.51108,26.8543748 L219.821116,26.8717166 L218.579655,26.8763411 L217.757715,28.3480855 L217.343894,28.3503977 L214.033332,28.3619589 L213.687912,28.3631151 L213.722112,37.5253885 L209.101688,37.5438864 L207.861367,37.5485109 L207.872767,40.7660007 L204.217924,40.7798742 L204.109624,11.4039493 L209.005928,11.3866075 L210.660069,11.3796707 C212.03947,11.3750462 213.977472,13.3231132 213.365291,15.6353589 L212.822651,17.8759249 L213.987732,15.7740936 L216.659894,11.2871809 L217.281194,11.2848687 L219.762976,11.2756197 L220.314737,11.2733074 Z M235.140562,29.2592259 L235.153102,32.8987005 L230.602219,32.9148862 L236.078783,40.6574408 L231.596299,40.6747826 L226.396755,33.4201119 L226.424115,40.6944367 L222.699733,40.7083102 L222.672373,33.0848363 L217.389608,40.7279643 L212.975525,40.7464623 L218.188749,32.9622873 L214.258026,32.9773169 L214.243206,29.269631 L235.140562,29.2592259 Z M207.885307,25.7283111 L207.916087,33.9113485 L209.089148,33.9055679 L210.192669,33.9009434 L210.166449,26.9075564 C210.232569,26.0693674 209.679669,25.7907418 209.058368,25.7942101 C208.644548,25.7259989 208.162327,25.7976785 207.885307,25.7283111 Z M214.009392,21.7177211 L211.87189,21.72697 L211.73509,22.2865335 C212.704091,23.1212542 213.812172,24.3768036 213.681072,26.1953848 L213.685632,27.5942934 L214.028772,27.0324177 L216.224414,24.0172494 L214.009392,21.8576119 L214.009392,21.7177211 Z M224.34236,18.5302904 L221.186837,23.1594062 L224.4974,23.2172124 L227.394142,23.2056511 L227.670022,23.204495 L227.391862,22.9258694 L224.48144,18.8805956 L224.34236,18.5302904 Z M209.019608,15.3023531 C208.537388,15.3035516 207.985627,15.5162782 207.847687,15.5162782 L207.871627,22.0899926 L208.768808,22.0876804 L209.038988,20.6876156 L210.127689,16.3475305 C210.330609,15.5070292 209.709309,15.2989271 209.019608,15.3023531 Z M216.478634,18.3510914 L215.794633,19.6829449 L217.317674,21.1454403 L217.938975,21.5628006 L218.625255,20.5095727 L217.310834,19.2574917 L216.478634,18.3510914 Z M231.091165,16.0584998 L229.160004,16.0654366 L227.366782,16.0712172 L227.090902,16.0723733 L227.370202,16.6319367 L229.032323,18.8620977 L229.170264,18.7222068 L231.095725,17.4562523 L231.091165,16.0584998 Z M221.712378,16.0931835 L219.781216,16.1012764 L217.781655,16.1082131 L219.786916,17.7788106 L220.339817,18.1268036 L221.712378,16.0931835 Z M261.210672,11.1167684 L261.770413,13.1434517 L263.424554,13.136515 L263.417714,11.3179338 L267.073697,11.3040603 L267.080537,13.1226415 L267.907037,13.1191731 L267.920717,16.7574917 L262.472653,16.7771458 L263.455334,21.250185 L264.135914,18.7298372 L267.997097,18.7148076 L265.068435,28.5175731 L267.732617,40.5377821 L264.009374,40.5516556 L262.957154,35.6589438 L261.595992,40.6302719 L257.526189,40.6453015 L254.974867,40.5863393 C253.940887,40.659175 252.837366,40.3840178 252.281045,39.6868757 L251.036164,38.5018498 L251.036164,38.4336385 L249.661323,39.6961247 C249.111843,40.3990474 248.286482,40.6811413 247.251361,40.6152423 L243.526979,40.6302719 L248.408462,36.4832593 L246.470461,34.7432945 C245.57214,34.0473085 245.50032,33.1397521 245.4969,32.2287273 L245.4855,29.0829171 L244.242899,29.0875416 L244.229219,25.4492231 L245.47182,25.4445986 L245.46384,23.2075009 L249.049143,23.3323622 L249.057123,25.4307251 L250.988284,25.4237884 L252.781506,25.4180078 L252.773526,23.3173326 L256.428368,23.1658805 L256.435208,25.4029782 L257.746209,25.3983537 L257.75989,29.0355161 L256.448888,29.0412967 L256.460289,32.1871069 C256.463709,33.0969756 256.330328,34.0068442 255.436568,34.7086108 L253.650186,36.4636053 L257.80093,40.1562616 L261.275652,28.5314465 L258.81781,16.7921754 L250.955224,16.8210784 L242.955838,16.8522937 L242.345938,38.1862283 C242.212558,39.586293 241.319937,40.6372087 240.078476,40.6429893 L238.492735,40.6487699 L239.080975,13.1584813 L250.942684,13.183916 L257.97763,13.1561691 L257.417889,11.1306419 L261.210672,11.1167684 Z M252.795186,29.0540141 L251.000824,29.0609508 L249.070803,29.0690437 L249.081063,32.074963 L251.019064,33.9559748 L251.019064,33.8866075 L252.806586,32.0610895 L252.795186,29.0540141 Z M258.135178,18.4719062 L258.147718,22.1090686 L243.734687,22.1634064 L243.721007,18.5285562 L258.135178,18.4719062 Z M198.523392,11.4969016 C199.833253,11.7003792 200.527513,12.5374121 200.668874,13.6553829 L200.770334,40.9306326 L197.115491,40.9456622 L197.080151,31.643498 L191.701627,31.6643082 L191.633227,31.6643082 L191.644627,35.022845 L191.714167,35.022845 L195.50695,35.0078154 L195.51949,38.6438217 L191.726707,38.6588513 L190.278906,38.6646319 C188.829964,38.458842 188.137984,37.7640122 188.065024,36.5743618 L188.046784,31.6781817 L186.321963,31.6851184 L186.356163,40.9872826 L182.70132,41 L182.59188,11.55702 L191.627527,11.5211802 Z M180.661288,11.7732149 L175.859605,18.3654273 L181.238129,18.3457732 L175.337484,26.3415187 L180.716008,26.3207085 L180.730828,30.3775435 L177.489806,30.3902608 L177.528566,40.8809193 L173.942123,40.8947928 L173.903363,30.4041343 L170.04218,30.4180078 L170.02736,26.3611728 L170.09576,26.3611728 L170.09462,26.2906493 L173.799623,21.10197 L170.00798,21.0464761 L170,19.0186367 L175.490244,11.792869 L180.661288,11.7732149 Z M172.528978,31.6666204 L172.557478,39.3606178 L170.075696,39.3698668 L170.047196,31.6770255 L172.528978,31.6666204 Z M181.219433,31.6339021 L181.247933,39.3267434 L178.833411,39.3359924 L178.804911,31.6431511 L181.219433,31.6339021 Z M197.050511,23.7413984 L186.292323,23.7818627 L186.308283,28.047956 L189.273425,28.0375509 L189.264305,25.309101 L191.677687,25.299852 L194.022668,25.2917592 L194.032928,28.0190529 L197.067611,28.0063356 L197.050511,23.7413984 Z M197.019731,15.0693211 L191.640067,15.0889752 L186.260403,15.1097854 L186.279783,20.2152238 L187.795984,20.2094432 L186.956943,16.8543748 L190.267506,16.8428135 L191.106546,20.1955697 L191.659447,20.1944136 L192.003727,20.1921014 L192.818828,16.7630411 L196.19779,16.7503237 L195.244749,20.1816963 L197.037971,20.1747595 L197.019731,15.0693211 Z" id="Combined-Shape" fill="#221714"></path>
        <g id="Group">
            <path d="M78.0178648,11.2311136 C80.5117149,11.2311136 82.5342227,11.5665726 83.8145681,11.9043371 C86.0399029,12.7147414 87.5230753,14.7378702 88.1315563,16.8970271 L88.1315563,11.2311136 L96.4244146,11.2311136 L96.4244146,28.6991883 C96.4244146,31.4658602 97.9767326,33.6918783 100.876237,33.6918783 C103.977415,33.6918783 105.528581,31.6007354 105.528581,28.6991883 L105.528581,11.2311136 L113.686605,11.2311136 L113.686605,15.8180251 C114.496761,14.063494 115.913093,12.7147414 117.665933,11.9043371 C118.472631,11.6357394 119.485614,11.4340029 120.768264,11.2991276 C121.448579,11.2462278 122.25229,11.2344723 123.178853,11.23186 L159,11.2311136 L159,18.3137937 L150.637996,18.3137937 L150.637996,39.8972928 L142.275992,39.8972928 L142.275992,18.3137937 L129.614287,18.3137937 C129.614287,18.3137937 126.717087,15.7788305 123.396948,16.0197615 C122.250284,16.1557896 121.238454,16.7621518 120.768264,17.5022366 C120.429451,18.1097516 120.429451,18.7852807 120.768264,19.4596569 C120.901971,19.5953223 121.036656,19.7976072 121.23903,19.9321814 C124.069388,22.5628253 128.252695,22.0221715 131.151047,23.3720768 C132.969575,24.3173564 134.185385,25.3283444 134.858402,26.5410689 C136.476408,29.4426161 136.408415,32.8813587 134.723568,35.6480306 C132.498233,39.2885097 128.319536,40.3686645 124.273368,40.3686645 C122.99187,40.3686645 121.845206,40.3006505 120.767688,40.166928 L120.404426,40.1175104 C117.887129,39.7476028 115.993605,38.8918066 114.901262,37.6032606 C113.956273,36.5242586 113.081582,35.3783953 112.607934,33.960476 C112.134287,35.1755061 111.395582,36.2545081 110.517434,37.1317736 C108.023583,39.828126 105.121774,40.367627 101.483565,40.367627 C97.0305908,40.367627 93.5249105,39.9653068 90.6277113,36.5242586 C88.8057256,34.3005461 88.1315563,31.1304012 88.1315563,28.3625765 L88.1315563,21.7525363 C87.6579092,23.5739286 86.5123976,25.1924316 84.8943914,26.2034197 C84.2202221,26.5411842 83.0735581,27.0126712 81.9268941,27.2835745 C82.8707311,27.4864638 83.6820391,28.024812 84.0853883,28.3625765 C84.2882152,28.4986046 84.8943914,29.1729808 85.2988929,29.7793431 C87.1854145,32.6128762 88.5349055,36.4573974 89.4798949,39.8972928 L81.4555519,39.8972928 C81.4555519,39.8972928 80.9830572,36.2545081 79.5667255,33.2872525 C78.4212139,31.0612344 77.5453701,29.7113291 76.3975537,29.0369528 C76.330713,28.9700916 76.1958791,28.8363691 76.0610452,28.7683551 C75.2531945,28.3625765 73.702029,28.2277013 72.6222057,28.2277013 L72.6222057,39.8972928 L64.328195,39.8972928 L64.328195,18.3137937 L56.6415129,18.3137937 L56.6415129,39.8972928 L48.3463497,39.8972928 L48.3463497,18.3137937 L44.9755033,18.3137937 C44.2333409,14.2663832 41.7394908,11.4985586 38.1658174,11.2991276 L38.1658174,11.2311136 Z M113.686605,22.5629406 L113.686605,28.3625765 C113.686605,29.0369528 113.618612,29.7113291 113.551771,30.3845526 L119.551302,30.4537194 C119.620447,31.5315686 120.092942,32.5448622 120.768264,33.2872525 C121.712364,34.1636218 122.926671,34.7015982 124.341361,34.7015982 C125.891374,34.7015982 128.047563,33.7586242 128.047563,31.8035094 C128.047563,29.2397268 124.611029,28.4984893 122.926182,28.227586 C122.249708,28.0927107 121.50985,27.9578355 120.767688,27.756099 L120.767817,27.7551136 C118.033278,26.9091993 115.046903,25.3711852 113.812111,22.8381577 L113.686605,22.5629406 Z M76.1958791,17.0295968 L72.6222057,17.0295968 L72.6222057,22.7646771 L76.3975537,22.7646771 C78.2183869,22.6978158 80.1752065,22.0222868 80.1752065,19.9322967 C80.1752065,17.7062786 77.9487192,17.0987636 76.3975537,17.0987636 C76.330713,17.0987636 76.2627198,17.0295968 76.1958791,17.0295968 Z" id="Combined-Shape" fill="#221714"></path>
            <g id="Group-3">
                <path d="M26.8121154,18.7362875 L26.8121154,19.7714839 C25.0823238,21.9917381 23.6198951,24.6512015 22.740594,27.4974152 C20.3942544,34.9593598 22.6806678,41.0379685 27.8539086,41.0379685 C28.8968542,41.0379685 30.0296891,40.7935792 31.1371706,40.3001893 L34.4388714,40.3001893 C33.5906858,40.9422878 32.7425002,41.4956222 31.895467,41.920998 C30.4779829,42.6622355 28.9948105,43 27.6464719,43 C21.8474637,43 19.2844681,36.1870705 21.9154569,27.8236519 C22.9572501,24.4506177 24.7273766,21.3092924 26.8121154,18.7362875 Z M22.0493688,11.1632149 L22.0493688,24.5181706 C21.4420402,25.7320479 21.0386911,27.0127865 20.6341895,28.3626918 C19.3526917,32.8815892 19.5555187,36.9289996 20.8358641,39.7625328 L15.0380083,39.7625328 L15.0380083,28.3626918 L7.01366531,28.3626918 L7.01366531,39.8282412 L0,39.8282412 L0,11.2312289 L7.01366531,11.2312289 L7.01366531,21.5497623 L15.0380083,21.5497623 L15.0380083,11.1632149 L22.0493688,11.1632149 Z M36.2350427,16.7341393 L36.2350427,39.5983769 L27.4685373,39.5983769 L27.4685373,16.7341393 L36.2350427,16.7341393 Z M37.2218652,12.5798662 C42.9528803,12.5798662 45.5147235,19.3927957 42.8860396,27.8242283 C41.6552485,31.7621246 39.4679437,35.2953952 36.945283,37.9859836 L36.945283,35.6654375 C38.854853,33.4002249 40.4843835,30.5885946 41.4489642,27.4968388 C43.7964562,19.9749496 41.5100428,13.8963409 36.3967281,13.8963409 C34.9147081,13.8963409 33.380829,14.3874251 31.8953517,15.2554684 C31.8112246,15.305038 31.7270975,15.3488436 31.6441228,15.4007187 C31.3617784,15.5828579 31.0805865,15.7834417 30.8005469,15.9874837 L29.5858898,15.9874837 C30.3430338,15.3407741 31.1186165,14.7678425 31.8953517,14.2663832 C33.6481919,13.1873812 35.4678727,12.5798662 37.2218652,12.5798662 Z M31.8726964,0.11880254 C32.0740207,0.13128617 32.5140285,0.155213126 32.7983732,0.225953693 C32.9882822,0.273807606 33.5932929,0.416329042 33.8900907,0.558850478 C34.1983037,0.702412217 34.6019901,0.880303936 34.8635042,1.09460624 C35.0056765,1.21320072 35.3854946,1.46391361 35.6698392,1.77288344 C35.9552216,2.08185327 36.1451307,2.28471225 36.3589081,2.6051254 C36.5124957,2.81942771 36.7148578,3.20017841 36.8808984,3.58092911 C37.0469391,3.95023648 37.2015645,4.61603005 37.2015645,4.61603005 L37.2094822,4.67204263 C37.2342249,4.84966464 37.3084532,5.40319224 37.3084532,5.65113099 L37.3084532,5.93721416 C37.3084532,5.93721416 37.2721318,6.43655934 37.2015645,6.82875337 C37.1413748,7.17413378 36.8694832,7.89922459 36.8694832,7.89922459 C36.8694832,7.89922459 36.5488171,8.55357484 36.3827764,8.81573105 C36.2042827,9.07788727 35.6937076,9.66045665 35.6937076,9.66045665 C35.6937076,9.66045665 35.2308692,10.1005046 34.8635042,10.3501772 C34.3767974,10.6955576 33.8900907,10.8859329 33.8900907,10.8859329 C33.8900907,10.8859329 33.2497963,11.1241622 32.7983732,11.2188297 C32.3355348,11.3259809 31.6827873,11.3259809 31.6827873,11.3259809 L31.6942026,11.278127 C31.6942026,11.278127 31.0653235,11.278127 30.5910699,11.1709758 C30.1157784,11.0763083 29.5585044,10.8505627 29.5585044,10.8505627 L29.5144334,10.82993 C29.3732076,10.7631772 28.9214962,10.5447137 28.5850909,10.3262502 C28.1814044,10.0765776 27.8140394,9.6843836 27.8140394,9.6843836 C27.8140394,9.6843836 27.4228061,9.32755986 27.089687,8.81573105 C26.7700586,8.29245892 26.5915649,7.89922459 26.5915649,7.89922459 C26.5915649,7.89922459 26.3902406,7.5195142 26.2594836,6.81731004 C26.1676822,6.30436091 26.153866,5.92560463 26.1523781,5.77811087 L26.1525949,5.42538536 C26.1640102,5.18715609 26.2117469,4.79496207 26.2594836,4.58065976 C26.3186355,4.25920631 26.4732609,3.78378808 26.5676966,3.55700215 C26.66317,3.33125652 26.8292106,2.92657886 27.10214,2.55831179 C27.1851604,2.40330673 27.5888468,1.91540488 27.7901711,1.72502953 L27.858132,1.65730211 C28.1264179,1.40110535 28.5850909,1.07067929 28.5850909,1.07067929 C28.5850909,1.07067929 29.1901016,0.689928587 29.5460513,0.547407151 C29.9144541,0.404885715 30.1635151,0.297734562 30.5910699,0.225953693 C31.0175869,0.155213126 31.1369286,0.155213126 31.2552326,0.142729497 C31.3859896,0.11880254 31.671372,0.11880254 31.8726964,0.11880254 Z" id="Combined-Shape" fill="#861D35"></path>
                <path d="M31.8021291,0 C34.9589775,0 37.5346836,2.58203069 37.5346836,5.74663075 C37.5346836,8.91123082 34.9589775,11.4922212 31.8021291,11.4922212 L31.8021291,11.4807779 C28.6452806,11.4807779 26.0695745,8.89874719 26.0695745,5.73414713 C26.0695745,2.56954706 28.6452806,0 31.8021291,0 Z M30.2171892,10.1592844 L30.2831682,10.0650303 C30.0396558,10.4005152 29.9032113,10.6727135 29.8366409,10.8278908 C30.4299307,11.0584165 31.0738245,11.1877221 31.747024,11.1944207 C31.7649452,11.1564439 31.7931692,11.0994715 31.8298804,11.0309904 L31.690059,10.9605987 C31.317967,10.7721902 30.6540661,10.4285244 30.2171892,10.1592844 Z M33.9738374,9.68386345 C33.261938,9.83886852 33.0595759,10.0292439 32.6683426,10.3860676 C32.401876,10.6291545 32.1923815,10.9764935 32.0807485,11.1878303 C33.3595672,11.1226565 34.5206139,10.6158632 35.4160863,9.81658444 C35.1680556,9.72002663 34.6065413,9.5520797 33.9738374,9.68386345 Z M31.0993138,9.12128219 L31.0477523,9.16930489 C30.7789614,9.42153367 30.6480144,9.57002233 30.3933894,9.91449089 C30.8946523,10.2206987 31.6860809,10.6245072 31.9819707,10.7704794 C32.1064475,10.5711922 32.2719632,10.3460926 32.4659805,10.1717653 L32.5569271,10.091319 C32.2327526,9.90239382 31.5469471,9.48893546 31.0993138,9.12128219 Z M27.9044373,7.87943981 L27.0122868,8.32504945 C27.5786052,9.37980673 28.4816071,10.2259026 29.5771514,10.7190026 C29.6445924,10.5636403 29.7701659,10.3125296 29.9797275,10.0088936 L29.9380111,9.98138995 C29.4284737,9.65993649 29.0953546,9.43419086 28.6096856,8.85162149 C28.1981261,8.36475994 27.9920969,8.03792557 27.9044373,7.87943981 Z M31.3157337,8.92277818 C31.7939835,9.3155887 32.5232345,9.7464373 32.7840213,9.89346536 C32.9297705,9.77682532 33.0746516,9.68263906 33.2557527,9.60206195 L32.5678941,8.0893086 C32.0530631,8.35644583 31.6055999,8.65168501 31.3157337,8.92277818 Z M29.6400302,7.01654257 L28.1700853,7.74720411 C28.2586646,7.9010826 28.4568547,8.20199595 28.8348783,8.66124614 C29.2977167,9.20844523 29.5945144,9.39882058 30.0926365,9.73171736 L30.1525745,9.767 L30.1770889,9.73383438 C30.4472059,9.36437805 30.5868385,9.20858802 30.8865596,8.92865302 L31.0056527,9.04189281 C30.4746108,8.56394731 29.9318053,7.69230974 29.6400302,7.01654257 Z M36.0484455,7.31851399 L36.0144774,7.53064543 C35.926182,8.15023122 35.6601481,9.18295555 35.5632475,9.55691544 C35.5771216,9.56202728 35.5887007,9.56681179 35.5994354,9.57132665 L35.6576463,9.59666199 C36.2321353,9.01016766 36.6818993,8.29450588 36.9518334,7.49562256 C36.8272696,7.45921616 36.3951036,7.33799257 36.0484455,7.31851399 Z M34.3895618,7.45907262 C33.9142703,7.53085349 33.4036952,7.69730189 32.9294415,7.91160419 L32.8385745,7.955 L33.5393742,9.49641998 C33.6498306,9.46194589 33.7734308,9.42977173 33.9146854,9.39882058 C33.9907152,9.38277068 34.0656341,9.3705238 34.1391595,9.36158482 C34.2011576,9.05582328 34.3739368,8.14833337 34.3891366,7.50010028 L34.3895618,7.45907262 Z M34.6712851,7.42141433 L34.6742178,7.34079023 C34.6742178,7.99241316 34.4968472,8.96178854 34.4221,9.34419499 C34.7564267,9.33713558 35.0498486,9.39367915 35.2704976,9.45644777 C35.3681251,9.08519593 35.6315364,8.06577146 35.7176797,7.47134819 L35.7437927,7.3236451 C35.4264369,7.34041439 34.9839297,7.38391081 34.6712851,7.42141433 Z M31.6315745,6.028 L29.9005745,6.889 L29.941471,6.984754 C30.2062225,7.57195741 30.6503982,8.29380291 31.0984774,8.73625004 L31.1258246,8.70847587 C31.4370009,8.4263659 31.9069919,8.1198166 32.4519089,7.83459387 L31.6315745,6.028 Z M26.5047713,4.51732357 L26.4720125,4.67409162 C26.4027338,5.02083878 26.3663722,5.37948011 26.3663722,5.74663075 C26.3663722,6.57342088 26.5500311,7.35710812 26.878685,8.05897688 L27.7735393,7.62347825 C27.6550551,7.3852079 27.4302126,6.87654178 27.3280591,6.2695908 C27.2304481,5.79263565 27.1890395,5.20877124 27.202565,4.63114673 C26.9481538,4.61187209 26.682558,4.55912887 26.5047713,4.51732357 Z M33.7406475,4.97812106 L31.9015745,5.894 L32.7213476,7.69830554 C32.7548738,7.68191611 32.7886147,7.6656271 32.8225528,7.64944797 C33.3206749,7.41225901 33.8551183,7.24581062 34.3656934,7.16154612 L34.3815745,7.159 C34.3289733,6.44763262 34.0337822,5.5541849 33.7406475,4.97812106 Z M28.9853969,4.47546204 L28.8675468,4.4920468 C28.4757765,4.55167875 27.8383093,4.62869659 27.492348,4.63875353 C27.4831007,5.19536581 27.5214371,5.75914287 27.6124038,6.21029356 C27.7064708,6.78356542 27.922992,7.25831031 28.0370961,7.48424583 L29.5345745,6.739 L29.5045746,6.66034003 C29.3059891,6.14454427 29.1359117,5.64715731 28.9853969,4.47546204 Z M36.7479558,3.48601826 L35.6976399,4.0099433 C35.7402937,4.11582913 35.762145,4.18129666 35.7654164,4.18815365 C35.7654164,4.18815365 35.9314571,4.55642072 36.0860825,5.50829746 C36.1853683,6.1569863 36.1596667,6.54629371 36.0930161,7.02057885 L36.014685,7.01902469 C36.4125636,7.01902469 36.8986354,7.15971142 37.042402,7.20713301 C37.1691295,6.74225051 37.2378859,6.25250885 37.2378859,5.74663075 C37.2378859,4.94006489 37.0624037,4.17456534 36.7479558,3.48601826 Z M35.4419876,4.13630223 L34.0105745,4.846 L34.0677046,4.963195 C34.3500654,5.57117496 34.6175796,6.43095287 34.6663316,7.12561157 C34.9871153,7.08785886 35.4594513,7.0398584 35.7905996,7.02420674 C35.858067,6.53876724 35.8826003,6.17759173 35.7892847,5.54366775 C35.6945032,4.94930828 35.5941869,4.59260012 35.5378407,4.41713578 L35.5097054,4.33315517 C35.498672,4.30158823 35.492487,4.2853179 35.492487,4.28282117 C35.492487,4.27652041 35.4760076,4.22318489 35.4419876,4.13630223 Z M30.6805745,3.934 L30.6976472,3.92620549 C30.1321356,4.20469858 29.6382838,4.34889022 29.2768248,4.42101565 L29.2611878,4.28250908 C29.4099227,5.57637783 29.5913041,6.07614196 29.7951724,6.61046625 L31.5085745,5.757 L30.6805745,3.934 Z M32.3081909,2.90995355 L32.4068285,2.81932368 C32.0724944,3.1334171 31.5540236,3.48458948 30.9490925,3.79975855 L31.7785745,5.624 L33.6061273,4.71657726 C33.354699,4.23667251 33.090501,3.77854321 32.3081909,2.90995355 Z M33.43721,1.64545059 L33.4746776,1.59384739 C33.0826561,2.1508928 32.9610881,2.29688907 32.5316281,2.70221504 L32.4077625,2.56996318 C33.3144379,3.55738776 33.5984589,4.05861611 33.8769414,4.58131034 L35.3230973,3.86394157 C35.1975658,3.60109696 34.999764,3.24974615 34.7214356,2.91482345 C34.4043299,2.49590156 33.9342335,2.03872197 33.43721,1.64545059 Z M27.9549176,2.17871437 L27.9450248,2.20801699 C27.8882389,2.36670889 27.792973,2.6649428 27.6715558,3.16428797 C27.5869801,3.50342137 27.5322913,3.9132218 27.5080676,4.33919117 L27.4224948,4.34232647 C27.7594125,4.34232647 28.572388,4.23018229 28.9509324,4.17144779 L28.96439,4.30643604 C28.8402143,3.22967854 28.8292233,2.53286294 28.836347,2.23992178 C28.7710606,2.24708121 28.7075919,2.2491339 28.6452806,2.2491339 L28.6328276,2.26057723 C28.3652599,2.26057723 28.1335478,2.22268017 27.9549176,2.17871437 Z M27.6162591,2.27281924 L27.4920143,2.42983568 C27.0843907,2.96069682 26.7719496,3.56885132 26.580824,4.22861722 C26.7438045,4.26819087 26.9853011,4.31821833 27.2148785,4.33616356 C27.2393844,3.89223886 27.2971974,3.46468804 27.3872111,3.10499073 C27.4784228,2.72415681 27.5565992,2.45600475 27.6162591,2.27281924 Z M29.3333117,2.16590971 C29.2671326,2.18166583 29.2025655,2.19492467 29.139435,2.2059009 C29.1368183,2.46258198 29.1423094,3.119875 29.2438105,4.1172307 C29.5780393,4.04622831 30.0371107,3.907019 30.5546945,3.65847732 L29.8097294,2.01430384 C29.6761373,2.06757112 29.5206909,2.11739492 29.3333117,2.16590971 Z M33.9596487,0.74553356 L33.9495222,0.773287876 C33.8917518,0.914226581 33.7852854,1.13690912 33.6021895,1.41170213 C34.1241202,1.82407144 34.6176288,2.30373321 34.9580436,2.74837505 C35.2454708,3.0975622 35.4479104,3.46246516 35.5782477,3.73762057 L36.6173027,3.21945634 C36.0407489,2.12016754 35.100561,1.24216093 33.9596487,0.74553356 Z M30.7328341,1.3434388 L30.7456952,1.33262744 C30.5114691,1.56742873 30.3373334,1.74199201 30.0793663,1.88679797 L30.8220216,3.52248346 C31.3356575,3.25109495 31.7915023,2.95211091 32.1046672,2.68359753 L32.1939851,2.78426549 C31.5374326,2.070618 31.059835,1.63161037 30.8143869,1.41484216 L30.7328341,1.3434388 Z M31.3111834,0.502580165 L31.3041462,0.519505208 C31.2158768,0.69292419 31.0891663,0.915259599 30.9326265,1.11789817 C31.1507618,1.30398491 31.6391991,1.74279783 32.32428,2.47973459 L32.2055042,2.59357805 C32.7116767,2.1204611 32.8050803,2.0171072 33.1991821,1.46869779 C32.8981817,1.24146797 32.5924182,1.04690508 32.3117702,0.903918802 C31.7663924,0.626513272 31.4525714,0.533350815 31.3111834,0.502580165 Z M31.0628034,0.348240364 L30.9441209,0.36542255 C29.8027777,0.54781423 28.7773685,1.0879948 27.9878057,1.86812205 C28.27507,1.94147968 28.7460426,2.01096895 29.2617066,1.87982653 C29.9621908,1.68945118 30.1396467,1.51155947 30.5433332,1.11832514 C30.7730374,0.888056811 30.9549171,0.566470176 31.0628034,0.348240364 Z M31.8021291,0.297526502 L31.6178149,0.299967915 C31.8147265,0.365144474 32.0875621,0.473698483 32.4425272,0.654246213 C32.7357834,0.803170734 33.0507906,1.00249547 33.3622071,1.23105059 C33.5368752,0.961580398 33.6340363,0.753448759 33.682654,0.634595496 C33.0961574,0.416389479 32.4624472,0.297526502 31.8021291,0.297526502 Z" id="Combined-Shape" fill="#FFFFFF"></path>
            </g>
        </g>
    </g>
</svg>